<svg width="51" height="59" viewBox="0 0 51 59" fill="none" xmlns="http://www.w3.org/2000/svg">
<path d="M10.039 3.20422C11.859 3.20422 13.6141 3.94047 14.9156 5.26667C16.2187 6.59446 16.9589 8.40515 16.9589 10.3028V48.6972C16.9589 50.5948 16.2187 52.4055 14.9156 53.7333C13.6141 55.0595 11.859 55.7958 10.039 55.7958C8.21909 55.7958 6.46397 55.0595 5.16246 53.7333C3.85939 52.4055 3.11914 50.5948 3.11914 48.6972V10.3028C3.11914 8.40515 3.85939 6.59445 5.16246 5.26667C6.46397 3.94047 8.21909 3.20422 10.039 3.20422ZM41.4387 3.20422C43.2586 3.20422 45.0138 3.94047 46.3153 5.26667C47.6183 6.59445 48.3586 8.40515 48.3586 10.3028V48.6972C48.3586 50.5948 47.6183 52.4055 46.3153 53.7333C45.0138 55.0595 43.2586 55.7958 41.4387 55.7958C39.6187 55.7958 37.8636 55.0595 36.5621 53.7333C35.259 52.4055 34.5188 50.5948 34.5188 48.6972V10.3028C34.5188 8.40515 35.259 6.59446 36.5621 5.26667C37.8636 3.94047 39.6187 3.20422 41.4387 3.20422Z" fill="#F0F2F5" stroke="black" stroke-width="5"/>
</svg>
